<?xml version="1.0"?>
<svg xmlns="http://www.w3.org/2000/svg" xmlns:xlink="http://www.w3.org/1999/xlink" width="960" height="635" overflow="hidden"><defs><clipPath id="clip0"><rect x="0" y="0" width="960" height="635"/></clipPath><clipPath id="clip1"><rect x="56" y="14" width="711" height="544"/></clipPath><clipPath id="clip2"><rect x="56" y="14" width="711" height="544"/></clipPath><clipPath id="clip3"><rect x="56" y="14" width="711" height="544"/></clipPath><clipPath id="clip4"><rect x="56" y="14" width="711" height="544"/></clipPath><clipPath id="clip5"><rect x="56" y="14" width="711" height="544"/></clipPath><clipPath id="clip6"><rect x="0" y="0" width="822" height="630"/></clipPath><clipPath id="clip7"><rect x="0" y="0" width="822" height="630"/></clipPath><clipPath id="clip8"><rect x="0" y="0" width="822" height="630"/></clipPath><clipPath id="clip9"><rect x="0" y="0" width="822" height="630"/></clipPath><clipPath id="clip10"><rect x="0" y="0" width="822" height="630"/></clipPath><clipPath id="clip11"><rect x="0" y="0" width="822" height="630"/></clipPath><clipPath id="clip12"><rect x="0" y="0" width="822" height="630"/></clipPath><clipPath id="clip13"><rect x="0" y="0" width="822" height="630"/></clipPath><clipPath id="clip14"><rect x="0" y="0" width="822" height="630"/></clipPath><clipPath id="clip15"><rect x="0" y="0" width="822" height="630"/></clipPath><clipPath id="clip16"><rect x="769" y="-57" width="188" height="314"/></clipPath><clipPath id="clip17"><rect x="769" y="61" width="188" height="315"/></clipPath><clipPath id="clip18"><rect x="769" y="226" width="188" height="315"/></clipPath><clipPath id="clip19"><rect x="769" y="331" width="188" height="314"/></clipPath><clipPath id="clip20"><rect x="769" y="388" width="188" height="315"/></clipPath></defs><g clip-path="url(#clip0)"><rect x="0" y="0" width="960" height="635" fill="#FFFFFF"/><rect x="0" y="0" width="960" height="635" fill="#FFFFFF"/><g clip-path="url(#clip1)"><path d="M56.5001 557.5 61.5001 557.5 66.5001 557.5 71.5001 557.5 76.5001 557.5 81.5001 557.5 86.5001 557.5 91.5001 557.5 96.5001 557.5 101.5 557.5 106.5 557.5 111.5 557.5 116.5 557.5 121.5 557.5 126.5 557.5 131.5 557.5 136.5 557.5 141.5 557.5 146.5 557.5 151.5 557.5 156.5 557.5 161.5 557.5 166.5 557.5 171.5 557.5 177.5 557.5 182.5 557.5 187.5 557.5 192.5 557.5 197.5 557.5 202.5 557.5 207.5 557.5 212.5 557.5 217.5 557.5 222.5 557.5 227.5 557.5 232.5 557.5 237.5 557.5 242.5 557.5 247.5 557.5 252.5 557.5 257.5 557.5 262.5 557.5 267.5 557.5 272.5 557.5 277.5 557.5 282.5 557.5 287.5 557.5 292.5 557.5 297.5 556.5 302.5 556.5 307.5 556.5 312.5 557.5 318.5 557.5 323.5 557.5 328.5 557.5 333.5 557.5 338.5 556.5 343.5 556.5 348.5 556.5 353.5 556.5 358.5 557.5 363.5 556.5 368.5 556.5 373.5 556.5 378.5 557.5 383.5 557.5 388.5 556.5 393.5 556.5 398.5 556.5 403.5 556.5 408.5 555.5 413.5 555.5 418.5 555.5 423.5 555.5 428.5 555.5 433.5 554.5 438.5 554.5 443.5 554.5 448.5 554.5 453.5 554.5 458.5 554.5 464.5 554.5 469.5 554.5 474.5 554.5 479.5 553.5 484.5 553.5 489.5 552.5 494.5 552.5 499.5 551.5 504.5 551.5 509.5 550.5 514.5 549.5 519.5 549.5 524.5 548.5 529.5 548.5 534.5 549.5 539.5 548.5 544.5 548.5 549.5 547.5 554.5 548.5 559.5 548.5 564.5 549.5 569.5 549.5 574.5 549.5 579.5 550.5 584.5 550.5 589.5 550.5 594.5 549.5 599.5 549.5 605.5 549.5 610.5 548.5 615.5 547.5 620.5 548.5 625.5 547.5 630.5 547.5 635.5 546.5 640.5 546.5 645.5 546.5 650.5 546.5 655.5 546.5 660.5 545.5 665.5 544.5 670.5 544.5 675.5 543.5 680.5 542.5 685.5 541.5 690.5 540.5 695.5 539.5 700.5 539.5 705.5 538.5 710.5 537.5 715.5 536.5 720.5 536.5 725.5 535.5 730.5 534.5 735.5 535.5 740.5 534.5 745.5 534.5 751.5 533.5 756.5 532.5 761.5 532.5 766.5 532.5 766.5 557.5 761.5 557.5 756.5 557.5 751.5 557.5 745.5 557.5 740.5 557.5 735.5 557.5 730.5 557.5 725.5 557.5 720.5 557.5 715.5 557.5 710.5 557.5 705.5 557.5 700.5 557.5 695.5 557.5 690.5 557.5 685.5 557.5 680.5 557.5 675.5 557.5 670.5 557.5 665.5 557.5 660.5 557.5 655.5 557.5 650.5 557.5 645.5 557.5 640.5 557.5 635.5 557.5 630.5 557.5 625.5 557.5 620.5 557.5 615.5 557.5 610.5 557.5 605.5 557.5 599.5 557.5 594.5 557.5 589.5 557.5 584.5 557.5 579.5 557.5 574.5 557.5 569.5 557.5 564.5 557.5 559.5 557.5 554.5 557.5 549.5 557.5 544.5 557.5 539.5 557.5 534.5 557.5 529.5 557.5 524.5 557.5 519.5 557.5 514.5 557.5 509.5 557.5 504.5 557.5 499.5 557.5 494.5 557.5 489.5 557.5 484.5 557.5 479.5 557.5 474.5 557.5 469.5 557.5 464.5 557.5 458.5 557.5 453.5 557.5 448.5 557.5 443.5 557.5 438.5 557.5 433.5 557.5 428.5 557.5 423.5 557.5 418.5 557.5 413.5 557.5 408.5 557.5 403.5 557.5 398.5 557.5 393.5 557.5 388.5 557.5 383.5 557.5 378.5 557.5 373.5 557.5 368.5 557.5 363.5 557.5 358.5 557.5 353.5 557.5 348.5 557.5 343.5 557.5 338.5 557.5 333.5 557.5 328.5 557.5 323.5 557.5 318.5 557.5 312.5 557.5 307.5 557.5 302.5 557.5 297.5 557.5 292.5 557.5 287.5 557.5 282.5 557.5 277.5 557.5 272.5 557.5 267.5 557.5 262.5 557.5 257.5 557.5 252.5 557.5 247.5 557.5 242.5 557.5 237.5 557.5 232.5 557.5 227.5 557.5 222.5 557.5 217.5 557.5 212.5 557.5 207.5 557.5 202.5 557.5 197.5 557.5 192.5 557.5 187.5 557.5 182.5 557.5 177.5 557.5 171.5 557.5 166.5 557.5 161.5 557.5 156.5 557.5 151.5 557.5 146.5 557.5 141.5 557.5 136.5 557.5 131.5 557.5 126.5 557.5 121.5 557.5 116.5 557.5 111.5 557.5 106.5 557.5 101.5 557.5 96.5001 557.5 91.5001 557.5 86.5001 557.5 81.5001 557.5 76.5001 557.5 71.5001 557.5 66.5001 557.5 61.5001 557.5 56.5001 557.5Z" stroke="#000000" stroke-linejoin="round" stroke-miterlimit="10" fill="#94B6D2"/></g><g clip-path="url(#clip2)"><path d="M56.5001 557.5 61.5001 557.5 66.5001 557.5 71.5001 557.5 76.5001 557.5 81.5001 557.5 86.5001 557.5 91.5001 557.5 96.5001 557.5 101.5 557.5 106.5 557.5 111.5 557.5 116.5 557.5 121.5 557.5 126.5 557.5 131.5 557.5 136.5 557.5 141.5 557.5 146.5 557.5 151.5 557.5 156.5 557.5 161.5 557.5 166.5 557.5 171.5 557.5 177.5 557.5 182.5 557.5 187.5 557.5 192.5 557.5 197.5 557.5 202.5 557.5 207.5 557.5 212.5 557.5 217.5 557.5 222.5 557.5 227.5 557.5 232.5 557.5 237.5 556.5 242.5 556.5 247.5 556.5 252.5 556.5 257.5 556.5 262.5 556.5 267.5 556.5 272.5 556.5 277.5 556.5 282.5 556.5 287.5 556.5 292.5 556.5 297.5 555.5 302.5 555.5 307.5 555.5 312.5 555.5 318.5 556.5 323.5 556.5 328.5 555.5 333.5 555.5 338.5 555.5 343.5 555.5 348.5 555.5 353.5 555.5 358.5 555.5 363.5 555.5 368.5 554.5 373.5 554.5 378.5 554.5 383.5 554.5 388.5 554.5 393.5 553.5 398.5 553.5 403.5 553.5 408.5 551.5 413.5 550.5 418.5 550.5 423.5 549.5 428.5 549.5 433.5 548.5 438.5 547.5 443.5 546.5 448.5 546.5 453.5 545.5 458.5 544.5 464.5 543.5 469.5 542.5 474.5 541.5 479.5 539.5 484.5 538.5 489.5 536.5 494.5 534.5 499.5 533.5 504.5 530.5 509.5 528.5 514.5 526.5 519.5 524.5 524.5 521.5 529.5 521.5 534.5 522.5 539.5 519.5 544.5 518.5 549.5 517.5 554.5 515.5 559.5 515.5 564.5 515.5 569.5 516.5 574.5 516.5 579.5 513.5 584.5 512.5 589.5 513.5 594.5 510.5 599.5 507.5 605.5 505.5 610.5 501.5 615.5 500.5 620.5 500.5 625.5 498.5 630.5 497.5 635.5 496.5 640.5 493.5 645.5 493.5 650.5 492.5 655.5 490.5 660.5 488.5 665.5 487.5 670.5 485.5 675.5 482.5 680.5 479.5 685.5 476.5 690.5 474.5 695.5 470.5 700.5 468.5 705.5 469.5 710.5 462.5 715.5 459.5 720.5 457.5 725.5 456.5 730.5 454.5 735.5 453.5 740.5 450.5 745.5 448.5 751.5 442.5 756.5 440.5 761.5 441.5 766.5 436.5 766.5 532.5 761.5 532.5 756.5 532.5 751.5 533.5 745.5 534.5 740.5 534.5 735.5 535.5 730.5 534.5 725.5 535.5 720.5 536.5 715.5 536.5 710.5 537.5 705.5 538.5 700.5 539.5 695.5 539.5 690.5 540.5 685.5 541.5 680.5 542.5 675.5 543.5 670.5 544.5 665.5 544.5 660.5 545.5 655.5 546.5 650.5 546.5 645.5 546.5 640.5 546.5 635.5 546.5 630.5 547.5 625.5 547.5 620.5 548.5 615.5 547.5 610.5 548.5 605.5 549.5 599.5 549.5 594.5 549.5 589.5 550.5 584.5 550.5 579.5 550.5 574.5 549.5 569.5 549.5 564.5 549.5 559.5 548.5 554.5 548.5 549.5 547.5 544.5 548.5 539.5 548.5 534.5 549.5 529.5 548.5 524.5 548.5 519.5 549.5 514.5 549.5 509.5 550.5 504.5 551.5 499.5 551.5 494.5 552.5 489.5 552.5 484.5 553.5 479.5 553.5 474.5 554.5 469.5 554.5 464.5 554.5 458.5 554.5 453.5 554.5 448.5 554.5 443.5 554.5 438.5 554.5 433.5 554.5 428.5 555.5 423.5 555.5 418.5 555.5 413.5 555.5 408.5 555.5 403.5 556.5 398.5 556.5 393.5 556.5 388.5 556.5 383.5 557.5 378.5 557.5 373.5 556.5 368.5 556.5 363.5 556.5 358.5 557.5 353.5 556.5 348.5 556.5 343.5 556.5 338.5 556.5 333.5 557.5 328.5 557.5 323.5 557.5 318.5 557.5 312.5 557.5 307.5 556.5 302.5 556.5 297.5 556.5 292.5 557.5 287.5 557.5 282.5 557.5 277.5 557.5 272.5 557.5 267.5 557.5 262.5 557.5 257.5 557.5 252.5 557.5 247.5 557.5 242.5 557.5 237.5 557.5 232.5 557.5 227.5 557.5 222.5 557.5 217.5 557.5 212.5 557.5 207.5 557.5 202.5 557.5 197.5 557.5 192.5 557.5 187.5 557.5 182.5 557.5 177.5 557.5 171.5 557.5 166.5 557.5 161.5 557.5 156.5 557.5 151.5 557.5 146.5 557.5 141.5 557.5 136.5 557.5 131.5 557.5 126.5 557.5 121.5 557.5 116.5 557.5 111.5 557.5 106.5 557.5 101.5 557.5 96.5001 557.5 91.5001 557.5 86.5001 557.5 81.5001 557.5 76.5001 557.5 71.5001 557.5 66.5001 557.5 61.5001 557.5 56.5001 557.5Z" stroke="#000000" stroke-linejoin="round" stroke-miterlimit="10" fill="#DD8047"/></g><g clip-path="url(#clip3)"><path d="M56.5001 557.5 61.5001 557.5 66.5001 557.5 71.5001 557.5 76.5001 557.5 81.5001 557.5 86.5001 557.5 91.5001 556.5 96.5001 556.5 101.5 556.5 106.5 556.5 111.5 556.5 116.5 556.5 121.5 556.5 126.5 556.5 131.5 556.5 136.5 556.5 141.5 556.5 146.5 556.5 151.5 556.5 156.5 556.5 161.5 556.5 166.5 556.5 171.5 556.5 177.5 556.5 182.5 556.5 187.5 555.5 192.5 555.5 197.5 555.5 202.5 555.5 207.5 555.5 212.5 555.5 217.5 555.5 222.5 554.5 227.5 554.5 232.5 554.5 237.5 554.5 242.5 554.5 247.5 554.5 252.5 553.5 257.5 552.5 262.5 552.5 267.5 551.5 272.5 551.5 277.5 551.5 282.5 550.5 287.5 550.5 292.5 549.5 297.5 549.5 302.5 548.5 307.5 548.5 312.5 549.5 318.5 549.5 323.5 548.5 328.5 548.5 333.5 547.5 338.5 546.5 343.5 545.5 348.5 545.5 353.5 545.5 358.5 544.5 363.5 544.5 368.5 544.5 373.5 544.5 378.5 542.5 383.5 542.5 388.5 540.5 393.5 539.5 398.5 537.5 403.5 536.5 408.5 531.5 413.5 529.5 418.5 527.5 423.5 526.5 428.5 524.5 433.5 520.5 438.5 517.5 443.5 515.5 448.5 513.5 453.5 510.5 458.5 506.5 464.5 503.5 469.5 499.5 474.5 495.5 479.5 490.5 484.5 485.5 489.5 479.5 494.5 473.5 499.5 466.5 504.5 458.5 509.5 446.5 514.5 439.5 519.5 430.5 524.5 422.5 529.5 423.5 534.5 425.5 539.5 416.5 544.5 412.5 549.5 406.5 554.5 403.5 559.5 407.5 564.5 412.5 569.5 416.5 574.5 416.5 579.5 413.5 584.5 412.5 589.5 409.5 594.5 405.5 599.5 399.5 605.5 395.5 610.5 390.5 615.5 383.5 620.5 388.5 625.5 387.5 630.5 386.5 635.5 383.5 640.5 377.5 645.5 375.5 650.5 373.5 655.5 368.5 660.5 364.5 665.5 362.5 670.5 359.5 675.5 353.5 680.5 345.5 685.5 342.5 690.5 338.5 695.5 334.5 700.5 332.5 705.5 336.5 710.5 325.5 715.5 322.5 720.5 318.5 725.5 316.5 730.5 313.5 735.5 309.5 740.5 305.5 745.5 300.5 751.5 294.5 756.5 291.5 761.5 306.5 766.5 293.5 766.5 436.5 761.5 441.5 756.5 440.5 751.5 442.5 745.5 448.5 740.5 450.5 735.5 453.5 730.5 454.5 725.5 456.5 720.5 457.5 715.5 459.5 710.5 462.5 705.5 469.5 700.5 468.5 695.5 470.5 690.5 474.5 685.5 476.5 680.5 479.5 675.5 482.5 670.5 485.5 665.5 487.5 660.5 488.5 655.5 490.5 650.5 492.5 645.5 493.5 640.5 493.5 635.5 496.5 630.5 497.5 625.5 498.5 620.5 500.5 615.5 500.5 610.5 501.5 605.5 505.5 599.5 507.5 594.5 510.5 589.5 513.5 584.5 512.5 579.5 513.5 574.5 516.5 569.5 516.5 564.5 515.5 559.5 515.5 554.5 515.5 549.5 517.5 544.5 518.5 539.5 519.5 534.5 522.5 529.5 521.5 524.5 521.5 519.5 524.5 514.5 526.5 509.5 528.5 504.5 530.5 499.5 533.5 494.5 534.5 489.5 536.5 484.5 538.5 479.5 539.5 474.5 541.5 469.5 542.5 464.5 543.5 458.5 544.5 453.5 545.5 448.5 546.5 443.5 546.5 438.5 547.5 433.5 548.5 428.5 549.5 423.5 549.5 418.5 550.5 413.5 550.5 408.5 551.5 403.5 553.5 398.5 553.5 393.5 553.5 388.5 554.5 383.5 554.5 378.5 554.5 373.5 554.5 368.5 554.5 363.5 555.5 358.5 555.5 353.5 555.5 348.5 555.5 343.5 555.5 338.5 555.5 333.5 555.5 328.5 555.5 323.5 556.5 318.5 556.5 312.5 555.5 307.5 555.5 302.5 555.5 297.5 555.5 292.5 556.5 287.5 556.5 282.5 556.5 277.5 556.5 272.5 556.5 267.5 556.5 262.5 556.5 257.5 556.5 252.5 556.5 247.5 556.5 242.5 556.5 237.5 556.5 232.5 557.5 227.5 557.5 222.5 557.5 217.5 557.5 212.5 557.5 207.5 557.5 202.5 557.5 197.5 557.5 192.5 557.5 187.5 557.5 182.5 557.5 177.5 557.5 171.5 557.5 166.5 557.5 161.5 557.5 156.5 557.5 151.5 557.5 146.5 557.5 141.5 557.5 136.5 557.5 131.5 557.5 126.5 557.5 121.5 557.5 116.5 557.5 111.5 557.5 106.5 557.5 101.5 557.5 96.5001 557.5 91.5001 557.5 86.5001 557.5 81.5001 557.5 76.5001 557.5 71.5001 557.5 66.5001 557.5 61.5001 557.5 56.5001 557.5Z" stroke="#000000" stroke-linejoin="round" stroke-miterlimit="10" fill="#A5AB81"/></g><g clip-path="url(#clip4)"><path d="M56.5001 547.5 61.5001 546.5 66.5001 546.5 71.5001 545.5 76.5001 545.5 81.5001 545.5 86.5001 545.5 91.5001 544.5 96.5001 543.5 101.5 543.5 106.5 541.5 111.5 541.5 116.5 540.5 121.5 541.5 126.5 540.5 131.5 539.5 136.5 538.5 141.5 538.5 146.5 536.5 151.5 535.5 156.5 533.5 161.5 533.5 166.5 532.5 171.5 530.5 177.5 529.5 182.5 528.5 187.5 526.5 192.5 522.5 197.5 523.5 202.5 522.5 207.5 520.5 212.5 520.5 217.5 518.5 222.5 515.5 227.5 519.5 232.5 519.5 237.5 516.5 242.5 514.5 247.5 515.5 252.5 520.5 257.5 514.5 262.5 520.5 267.5 518.5 272.5 513.5 277.5 512.5 282.5 512.5 287.5 513.5 292.5 509.5 297.5 509.5 302.5 505.5 307.5 509.5 312.5 515.5 318.5 519.5 323.5 517.5 328.5 513.5 333.5 511.5 338.5 507.5 343.5 503.5 348.5 506.5 353.5 503.5 358.5 498.5 363.5 497.5 368.5 497.5 373.5 496.5 378.5 495.5 383.5 506.5 388.5 501.5 393.5 495.5 398.5 492.5 403.5 494.5 408.5 485.5 413.5 480.5 418.5 479.5 423.5 477.5 428.5 475.5 433.5 467.5 438.5 461.5 443.5 458.5 448.5 455.5 453.5 450.5 458.5 444.5 464.5 444.5 469.5 440.5 474.5 433.5 479.5 427.5 484.5 421.5 489.5 414.5 494.5 410.5 499.5 402.5 504.5 391.5 509.5 378.5 514.5 370.5 519.5 362.5 524.5 351.5 529.5 352.5 534.5 352.5 539.5 341.5 544.5 334.5 549.5 327.5 554.5 321.5 559.5 322.5 564.5 328.5 569.5 330.5 574.5 328.5 579.5 320.5 584.5 312.5 589.5 309.5 594.5 301.5 599.5 291.5 605.5 288.5 610.5 285.5 615.5 279.5 620.5 287.5 625.5 284.5 630.5 282.5 635.5 277.5 640.5 268.5 645.5 266.5 650.5 268.5 655.5 261.5 660.5 253.5 665.5 250.5 670.5 243.5 675.5 226.5 680.5 214.5 685.5 203.5 690.5 191.5 695.5 180.5 700.5 173.5 705.5 179.5 710.5 157.5 715.5 144.5 720.5 138.5 725.5 134.5 730.5 131.5 735.5 132.5 740.5 132.5 745.5 125.5 751.5 116.5 756.5 113.5 761.5 135.5 766.5 113.5 766.5 293.5 761.5 306.5 756.5 291.5 751.5 294.5 745.5 300.5 740.5 305.5 735.5 309.5 730.5 313.5 725.5 316.5 720.5 318.5 715.5 322.5 710.5 325.5 705.5 336.5 700.5 332.5 695.5 334.5 690.5 338.5 685.5 342.5 680.5 345.5 675.5 353.5 670.5 359.5 665.5 362.5 660.5 364.5 655.5 368.5 650.5 373.5 645.5 375.5 640.5 377.5 635.5 383.5 630.5 386.5 625.5 387.5 620.5 388.5 615.5 383.5 610.5 390.5 605.5 395.5 599.5 399.5 594.5 405.5 589.5 409.5 584.5 412.5 579.5 413.5 574.5 416.5 569.5 416.5 564.5 412.5 559.5 407.5 554.5 403.5 549.5 406.5 544.5 412.5 539.5 416.5 534.5 425.5 529.5 423.5 524.5 422.5 519.5 430.5 514.5 439.5 509.5 446.5 504.5 458.5 499.5 466.5 494.5 473.5 489.5 479.5 484.5 485.5 479.5 490.5 474.5 495.5 469.5 499.5 464.5 503.5 458.5 506.5 453.5 510.5 448.5 513.5 443.5 515.5 438.5 517.5 433.5 520.5 428.5 524.5 423.5 526.5 418.5 527.5 413.5 529.5 408.5 531.5 403.5 536.5 398.5 537.5 393.5 539.5 388.5 540.5 383.5 542.5 378.5 542.5 373.5 544.5 368.5 544.5 363.5 544.5 358.5 544.5 353.5 545.5 348.5 545.5 343.5 545.5 338.5 546.5 333.5 547.5 328.5 548.5 323.5 548.5 318.5 549.5 312.5 549.5 307.5 548.5 302.5 548.5 297.5 549.5 292.5 549.5 287.5 550.5 282.5 550.5 277.5 551.5 272.5 551.5 267.5 551.5 262.5 552.5 257.5 552.5 252.5 553.5 247.5 554.5 242.5 554.5 237.5 554.5 232.5 554.5 227.5 554.5 222.5 554.5 217.5 555.5 212.5 555.5 207.5 555.5 202.5 555.5 197.5 555.5 192.5 555.5 187.5 555.5 182.5 556.5 177.5 556.5 171.5 556.5 166.5 556.5 161.5 556.5 156.5 556.5 151.5 556.5 146.5 556.5 141.5 556.5 136.5 556.5 131.5 556.5 126.5 556.5 121.5 556.5 116.5 556.5 111.5 556.5 106.5 556.5 101.5 556.5 96.5001 556.5 91.5001 556.5 86.5001 557.5 81.5001 557.5 76.5001 557.5 71.5001 557.5 66.5001 557.5 61.5001 557.5 56.5001 557.5Z" stroke="#000000" stroke-linejoin="round" stroke-miterlimit="10" fill="#D8B25C"/></g><g clip-path="url(#clip5)"><path d="M56.5001 509.5 61.5001 509.5 66.5001 508.5 71.5001 506.5 76.5001 506.5 81.5001 506.5 86.5001 505.5 91.5001 504.5 96.5001 502.5 101.5 502.5 106.5 499.5 111.5 498.5 116.5 497.5 121.5 496.5 126.5 495.5 131.5 494.5 136.5 493.5 141.5 492.5 146.5 490.5 151.5 488.5 156.5 485.5 161.5 484.5 166.5 482.5 171.5 480.5 177.5 479.5 182.5 477.5 187.5 475.5 192.5 470.5 197.5 471.5 202.5 470.5 207.5 468.5 212.5 468.5 217.5 467.5 222.5 464.5 227.5 468.5 232.5 469.5 237.5 466.5 242.5 464.5 247.5 465.5 252.5 471.5 257.5 463.5 262.5 467.5 267.5 465.5 272.5 459.5 277.5 459.5 282.5 457.5 287.5 458.5 292.5 454.5 297.5 454.5 302.5 451.5 307.5 454.5 312.5 459.5 318.5 462.5 323.5 460.5 328.5 456.5 333.5 454.5 338.5 449.5 343.5 445.5 348.5 448.5 353.5 445.5 358.5 438.5 363.5 435.5 368.5 434.5 373.5 433.5 378.5 432.5 383.5 443.5 388.5 439.5 393.5 433.5 398.5 431.5 403.5 433.5 408.5 419.5 413.5 412.5 418.5 410.5 423.5 406.5 428.5 403.5 433.5 393.5 438.5 384.5 443.5 379.5 448.5 374.5 453.5 365.5 458.5 365.5 464.5 370.5 469.5 369.5 474.5 365.5 479.5 361.5 484.5 360.5 489.5 356.5 494.5 350.5 499.5 342.5 504.5 335.5 509.5 322.5 514.5 315.5 519.5 306.5 524.5 298.5 529.5 300.5 534.5 299.5 539.5 289.5 544.5 281.5 549.5 276.5 554.5 272.5 559.5 273.5 564.5 275.5 569.5 277.5 574.5 270.5 579.5 256.5 584.5 251.5 589.5 247.5 594.5 240.5 599.5 230.5 605.5 229.5 610.5 226.5 615.5 222.5 620.5 228.5 625.5 226.5 630.5 219.5 635.5 213.5 640.5 204.5 645.5 181.5 650.5 201.5 655.5 195.5 660.5 191.5 665.5 193.5 670.5 180.5 675.5 158.5 680.5 150.5 685.5 146.5 690.5 130.5 695.5 127.5 700.5 117.5 705.5 118.5 710.5 99.5001 715.5 84.5001 720.5 80.5001 725.5 79.5001 730.5 72.5001 735.5 67.5001 740.5 77.5001 745.5 73.5001 751.5 66.5001 756.5 58.5001 761.5 86.5001 766.5 65.5001 766.5 113.5 761.5 135.5 756.5 113.5 751.5 116.5 745.5 125.5 740.5 132.5 735.5 132.5 730.5 131.5 725.5 134.5 720.5 138.5 715.5 144.5 710.5 157.5 705.5 179.5 700.5 173.5 695.5 180.5 690.5 191.5 685.5 203.5 680.5 214.5 675.5 226.5 670.5 243.5 665.5 250.5 660.5 253.5 655.5 261.5 650.5 268.5 645.5 266.5 640.5 268.5 635.5 277.5 630.5 282.5 625.5 284.5 620.5 287.5 615.5 279.5 610.5 285.5 605.5 288.5 599.5 291.5 594.5 301.5 589.5 309.5 584.5 312.5 579.5 320.5 574.5 328.5 569.5 330.5 564.5 328.5 559.5 322.5 554.5 321.5 549.5 327.5 544.5 334.5 539.5 341.5 534.5 352.5 529.5 352.5 524.5 351.5 519.5 362.5 514.5 370.5 509.5 378.5 504.5 391.5 499.5 402.5 494.5 410.5 489.5 414.5 484.5 421.5 479.5 427.5 474.5 433.5 469.5 440.5 464.5 444.5 458.5 444.5 453.5 450.5 448.5 455.5 443.5 458.5 438.5 461.5 433.5 467.5 428.5 475.5 423.5 477.5 418.5 479.5 413.5 480.5 408.5 485.5 403.5 494.5 398.5 492.5 393.5 495.5 388.5 501.5 383.5 506.5 378.5 495.5 373.5 496.5 368.5 497.5 363.5 497.5 358.5 498.5 353.5 503.5 348.5 506.5 343.5 503.5 338.5 507.5 333.5 511.5 328.5 513.5 323.5 517.5 318.5 519.5 312.5 515.5 307.5 509.5 302.5 505.5 297.5 509.5 292.5 509.5 287.5 513.5 282.5 512.5 277.5 512.5 272.5 513.5 267.5 518.5 262.5 520.5 257.5 514.5 252.5 520.5 247.5 515.5 242.5 514.5 237.5 516.5 232.5 519.5 227.5 519.5 222.5 515.5 217.5 518.5 212.5 520.5 207.5 520.5 202.5 522.5 197.5 523.5 192.5 522.5 187.5 526.5 182.5 528.5 177.5 529.5 171.5 530.5 166.5 532.5 161.5 533.5 156.5 533.5 151.5 535.5 146.5 536.5 141.5 538.5 136.5 538.5 131.5 539.5 126.5 540.5 121.5 541.5 116.5 540.5 111.5 541.5 106.5 541.5 101.5 543.5 96.5001 543.5 91.5001 544.5 86.5001 545.5 81.5001 545.5 76.5001 545.5 71.5001 545.5 66.5001 546.5 61.5001 546.5 56.5001 547.5Z" stroke="#000000" stroke-linejoin="round" stroke-miterlimit="10" fill="#7BA79D"/></g><g clip-path="url(#clip6)"><path d="M56.5001 557.5 766.5 557.5" stroke="#7F7F7F" stroke-linejoin="round" stroke-miterlimit="10" fill="none" fill-rule="evenodd"/></g><g clip-path="url(#clip7)"><path d="M56.5001 557.5 56.5001 568.5M106.5 557.5 106.5 568.5M156.5 557.5 156.5 568.5M207.5 557.5 207.5 568.5M257.5 557.5 257.5 568.5M307.5 557.5 307.5 568.5M358.5 557.5 358.5 568.5M408.5 557.5 408.5 568.5M458.5 557.5 458.5 568.5M509.5 557.5 509.5 568.5M559.5 557.5 559.5 568.5M610.5 557.5 610.5 568.5M660.5 557.5 660.5 568.5M710.5 557.5 710.5 568.5M761.5 557.5 761.5 568.5" stroke="#7F7F7F" stroke-linejoin="round" stroke-miterlimit="10" fill="none"/></g><g clip-path="url(#clip8)"><switch><text font-family="Liberation Sans,sans-serif" font-weight="400" font-size="37" transform="translate(14.6667 614)" id="trsvg16"><tspan id="trsvg1">1880</tspan></text></switch></g><g clip-path="url(#clip9)"><switch><text font-family="Liberation Sans,sans-serif" font-weight="400" font-size="37" transform="translate(115.368 614)" id="trsvg17"><tspan id="trsvg2">1900</tspan></text></switch></g><g clip-path="url(#clip10)"><switch><text font-family="Liberation Sans,sans-serif" font-weight="400" font-size="37" transform="translate(216.069 614)" id="trsvg18"><tspan id="trsvg3">1920</tspan></text></switch></g><g clip-path="url(#clip11)"><switch><text font-family="Liberation Sans,sans-serif" font-weight="400" font-size="37" transform="translate(316.77 614)" id="trsvg19"><tspan id="trsvg4">1940</tspan></text></switch></g><g clip-path="url(#clip12)"><switch><text font-family="Liberation Sans,sans-serif" font-weight="400" font-size="37" transform="translate(417.471 614)" id="trsvg20"><tspan id="trsvg5">1960</tspan></text></switch></g><g clip-path="url(#clip13)"><switch><text font-family="Liberation Sans,sans-serif" font-weight="400" font-size="37" transform="translate(518.172 614)" id="trsvg21"><tspan id="trsvg6">1980</tspan></text></switch></g><g clip-path="url(#clip14)"><switch><text font-family="Liberation Sans,sans-serif" font-weight="400" font-size="37" transform="translate(618.873 614)" id="trsvg22"><tspan id="trsvg7">2000</tspan></text></switch></g><g clip-path="url(#clip15)"><switch><text font-family="Liberation Sans,sans-serif" font-weight="400" font-size="37" transform="translate(719.574 614)" id="trsvg23"><tspan id="trsvg8">2020</tspan></text></switch></g><g clip-path="url(#clip16)"><switch><text font-family="Liberation Sans,sans-serif" font-weight="normal" font-size="37" transform="translate(778.864 114)" id="trsvg24-cs" systemLanguage="cs"><tspan id="trsvg9-cs">Vyu&#x17E;it&#xED; krajiny</tspan></text><text font-family="Liberation Sans,sans-serif" font-weight="400" font-size="37" transform="translate(778.864 114)" id="trsvg24"><tspan id="trsvg9">Land use</tspan></text></switch></g><g clip-path="url(#clip17)"><switch><text font-family="Liberation Sans,sans-serif" font-weight="normal" font-size="37" transform="translate(778.864 232)" id="trsvg25-cs" systemLanguage="cs"><tspan id="trsvg10-cs">Uhl&#xED;</tspan></text><text font-family="Liberation Sans,sans-serif" font-weight="400" font-size="37" transform="translate(778.864 232)" id="trsvg25"><tspan id="trsvg10">Coal</tspan></text></switch></g><g clip-path="url(#clip18)"><switch><text font-family="Liberation Sans,sans-serif" font-weight="normal" font-size="37" transform="translate(778.864 397)" id="trsvg26-cs" systemLanguage="cs"><tspan id="trsvg11-cs">Ropa</tspan></text><text font-family="Liberation Sans,sans-serif" font-weight="400" font-size="37" transform="translate(778.864 397)" id="trsvg26"><tspan id="trsvg11">Oil</tspan></text></switch></g><g clip-path="url(#clip19)"><switch><text font-family="Liberation Sans,sans-serif" font-weight="normal" font-size="37" transform="translate(778.864 501)" id="trsvg27-cs" systemLanguage="cs"><tspan id="trsvg12-cs">Plyn</tspan></text><text font-family="Liberation Sans,sans-serif" font-weight="400" font-size="37" transform="translate(778.864 501)" id="trsvg27"><tspan id="trsvg12">Gas</tspan></text></switch></g><g clip-path="url(#clip20)"><switch><text font-family="Liberation Sans,sans-serif" font-weight="normal" font-size="37" transform="translate(778.864 559)" id="trsvg28-cs" systemLanguage="cs"><tspan id="trsvg13-cs">Ostatn&#xED;</tspan></text><text font-family="Liberation Sans,sans-serif" font-weight="400" font-size="37" transform="translate(778.864 559)" id="trsvg28"><tspan id="trsvg13">Other</tspan></text></switch></g><switch><text font-family="Liberation Sans,sans-serif" font-weight="normal" font-size="41" transform="translate(51.2842 86)" id="trsvg29-cs" systemLanguage="cs"><tspan id="trsvg14-cs">Emise oxidu uhli&#x10D;it&#xE9;ho</tspan></text><text font-family="Liberation Sans,sans-serif" font-weight="400" font-size="41" transform="translate(51.2842 86)" id="trsvg29"><tspan id="trsvg14">Carbon dioxide emissions</tspan></text></switch><switch><text font-family="Liberation Sans,sans-serif" font-weight="normal" font-size="41" transform="translate(51.2842 145)" id="trsvg30-cs" systemLanguage="cs"><tspan id="trsvg15-cs">podle zdroje od roku 1880</tspan></text><text font-family="Liberation Sans,sans-serif" font-weight="400" font-size="41" transform="translate(51.2842 145)" id="trsvg30"><tspan id="trsvg15">by source since 1880</tspan></text></switch></g></svg>
